<svg xmlns="http://www.w3.org/2000/svg" version="1.1" xmlns:xlink="http://www.w3.org/1999/xlink" xmlns:svgjs="http://svgjs.dev/svgjs" viewBox="0 0 1422 800"><defs><linearGradient x1="50%" y1="0%" x2="50%" y2="100%" id="oooscillate-grad"><stop stop-color="hsl(206, 75%, 49%)" stop-opacity="1" offset="0%"></stop><stop stop-color="hsl(331, 90%, 56%)" stop-opacity="1" offset="100%"></stop></linearGradient></defs><g stroke-width="5" stroke="url(#oooscillate-grad)" fill="none" stroke-linecap="round"><path d="M 0 2997 Q 355.5 -100 711 400 Q 1066.5 900 1422 2997" opacity="0.62"></path><path d="M 0 2970 Q 355.5 -100 711 400 Q 1066.5 900 1422 2970" opacity="0.83"></path><path d="M 0 2943 Q 355.5 -100 711 400 Q 1066.5 900 1422 2943" opacity="0.88"></path><path d="M 0 2916 Q 355.5 -100 711 400 Q 1066.5 900 1422 2916" opacity="0.22"></path><path d="M 0 2889 Q 355.5 -100 711 400 Q 1066.5 900 1422 2889" opacity="0.44"></path><path d="M 0 2862 Q 355.5 -100 711 400 Q 1066.5 900 1422 2862" opacity="0.92"></path><path d="M 0 2835 Q 355.5 -100 711 400 Q 1066.5 900 1422 2835" opacity="0.63"></path><path d="M 0 2808 Q 355.5 -100 711 400 Q 1066.5 900 1422 2808" opacity="0.69"></path><path d="M 0 2781 Q 355.5 -100 711 400 Q 1066.5 900 1422 2781" opacity="0.60"></path><path d="M 0 2754 Q 355.5 -100 711 400 Q 1066.5 900 1422 2754" opacity="0.08"></path><path d="M 0 2727 Q 355.5 -100 711 400 Q 1066.5 900 1422 2727" opacity="0.74"></path><path d="M 0 2700 Q 355.5 -100 711 400 Q 1066.5 900 1422 2700" opacity="0.35"></path><path d="M 0 2673 Q 355.5 -100 711 400 Q 1066.5 900 1422 2673" opacity="0.54"></path><path d="M 0 2646 Q 355.5 -100 711 400 Q 1066.5 900 1422 2646" opacity="0.66"></path><path d="M 0 2619 Q 355.5 -100 711 400 Q 1066.5 900 1422 2619" opacity="0.65"></path><path d="M 0 2592 Q 355.5 -100 711 400 Q 1066.5 900 1422 2592" opacity="0.56"></path><path d="M 0 2565 Q 355.5 -100 711 400 Q 1066.5 900 1422 2565" opacity="0.48"></path><path d="M 0 2538 Q 355.5 -100 711 400 Q 1066.5 900 1422 2538" opacity="0.09"></path><path d="M 0 2511 Q 355.5 -100 711 400 Q 1066.5 900 1422 2511" opacity="1.00"></path><path d="M 0 2484 Q 355.5 -100 711 400 Q 1066.5 900 1422 2484" opacity="0.19"></path><path d="M 0 2457 Q 355.5 -100 711 400 Q 1066.5 900 1422 2457" opacity="0.56"></path><path d="M 0 2430 Q 355.5 -100 711 400 Q 1066.5 900 1422 2430" opacity="0.66"></path><path d="M 0 2403 Q 355.5 -100 711 400 Q 1066.5 900 1422 2403" opacity="0.94"></path><path d="M 0 2376 Q 355.5 -100 711 400 Q 1066.5 900 1422 2376" opacity="0.20"></path><path d="M 0 2349 Q 355.5 -100 711 400 Q 1066.5 900 1422 2349" opacity="0.62"></path><path d="M 0 2322 Q 355.5 -100 711 400 Q 1066.5 900 1422 2322" opacity="0.22"></path><path d="M 0 2295 Q 355.5 -100 711 400 Q 1066.5 900 1422 2295" opacity="0.44"></path><path d="M 0 2268 Q 355.5 -100 711 400 Q 1066.5 900 1422 2268" opacity="0.75"></path><path d="M 0 2241 Q 355.5 -100 711 400 Q 1066.5 900 1422 2241" opacity="0.61"></path><path d="M 0 2214 Q 355.5 -100 711 400 Q 1066.5 900 1422 2214" opacity="0.85"></path><path d="M 0 2187 Q 355.5 -100 711 400 Q 1066.5 900 1422 2187" opacity="0.22"></path><path d="M 0 2160 Q 355.5 -100 711 400 Q 1066.5 900 1422 2160" opacity="0.32"></path><path d="M 0 2133 Q 355.5 -100 711 400 Q 1066.5 900 1422 2133" opacity="0.13"></path><path d="M 0 2106 Q 355.5 -100 711 400 Q 1066.5 900 1422 2106" opacity="0.41"></path><path d="M 0 2079 Q 355.5 -100 711 400 Q 1066.5 900 1422 2079" opacity="0.52"></path><path d="M 0 2052 Q 355.5 -100 711 400 Q 1066.5 900 1422 2052" opacity="0.57"></path><path d="M 0 2025 Q 355.5 -100 711 400 Q 1066.5 900 1422 2025" opacity="0.91"></path><path d="M 0 1998 Q 355.5 -100 711 400 Q 1066.5 900 1422 1998" opacity="0.54"></path><path d="M 0 1971 Q 355.5 -100 711 400 Q 1066.5 900 1422 1971" opacity="0.34"></path><path d="M 0 1944 Q 355.5 -100 711 400 Q 1066.5 900 1422 1944" opacity="0.43"></path><path d="M 0 1917 Q 355.5 -100 711 400 Q 1066.5 900 1422 1917" opacity="0.99"></path><path d="M 0 1890 Q 355.5 -100 711 400 Q 1066.5 900 1422 1890" opacity="0.59"></path><path d="M 0 1863 Q 355.5 -100 711 400 Q 1066.5 900 1422 1863" opacity="0.70"></path><path d="M 0 1836 Q 355.5 -100 711 400 Q 1066.5 900 1422 1836" opacity="0.37"></path><path d="M 0 1809 Q 355.5 -100 711 400 Q 1066.5 900 1422 1809" opacity="0.27"></path><path d="M 0 1782 Q 355.5 -100 711 400 Q 1066.5 900 1422 1782" opacity="0.29"></path><path d="M 0 1755 Q 355.5 -100 711 400 Q 1066.5 900 1422 1755" opacity="0.24"></path><path d="M 0 1728 Q 355.5 -100 711 400 Q 1066.5 900 1422 1728" opacity="0.10"></path><path d="M 0 1701 Q 355.5 -100 711 400 Q 1066.5 900 1422 1701" opacity="0.25"></path><path d="M 0 1674 Q 355.5 -100 711 400 Q 1066.5 900 1422 1674" opacity="0.32"></path><path d="M 0 1647 Q 355.5 -100 711 400 Q 1066.5 900 1422 1647" opacity="0.92"></path><path d="M 0 1620 Q 355.5 -100 711 400 Q 1066.5 900 1422 1620" opacity="0.23"></path><path d="M 0 1593 Q 355.5 -100 711 400 Q 1066.5 900 1422 1593" opacity="0.62"></path><path d="M 0 1566 Q 355.5 -100 711 400 Q 1066.5 900 1422 1566" opacity="0.23"></path><path d="M 0 1539 Q 355.5 -100 711 400 Q 1066.5 900 1422 1539" opacity="0.83"></path><path d="M 0 1512 Q 355.5 -100 711 400 Q 1066.5 900 1422 1512" opacity="0.32"></path><path d="M 0 1485 Q 355.5 -100 711 400 Q 1066.5 900 1422 1485" opacity="0.44"></path><path d="M 0 1458 Q 355.5 -100 711 400 Q 1066.5 900 1422 1458" opacity="0.84"></path><path d="M 0 1431 Q 355.5 -100 711 400 Q 1066.5 900 1422 1431" opacity="0.18"></path><path d="M 0 1404 Q 355.5 -100 711 400 Q 1066.5 900 1422 1404" opacity="0.54"></path><path d="M 0 1377 Q 355.5 -100 711 400 Q 1066.5 900 1422 1377" opacity="0.64"></path><path d="M 0 1350 Q 355.5 -100 711 400 Q 1066.5 900 1422 1350" opacity="0.43"></path><path d="M 0 1323 Q 355.5 -100 711 400 Q 1066.5 900 1422 1323" opacity="0.95"></path><path d="M 0 1296 Q 355.5 -100 711 400 Q 1066.5 900 1422 1296" opacity="0.61"></path><path d="M 0 1269 Q 355.5 -100 711 400 Q 1066.5 900 1422 1269" opacity="0.46"></path><path d="M 0 1242 Q 355.5 -100 711 400 Q 1066.5 900 1422 1242" opacity="0.44"></path><path d="M 0 1215 Q 355.5 -100 711 400 Q 1066.5 900 1422 1215" opacity="0.66"></path><path d="M 0 1188 Q 355.5 -100 711 400 Q 1066.5 900 1422 1188" opacity="0.39"></path><path d="M 0 1161 Q 355.5 -100 711 400 Q 1066.5 900 1422 1161" opacity="0.80"></path><path d="M 0 1134 Q 355.5 -100 711 400 Q 1066.5 900 1422 1134" opacity="1.00"></path><path d="M 0 1107 Q 355.5 -100 711 400 Q 1066.5 900 1422 1107" opacity="0.56"></path><path d="M 0 1080 Q 355.5 -100 711 400 Q 1066.5 900 1422 1080" opacity="0.15"></path><path d="M 0 1053 Q 355.5 -100 711 400 Q 1066.5 900 1422 1053" opacity="0.23"></path><path d="M 0 1026 Q 355.5 -100 711 400 Q 1066.5 900 1422 1026" opacity="0.36"></path><path d="M 0 999 Q 355.5 -100 711 400 Q 1066.5 900 1422 999" opacity="0.18"></path><path d="M 0 972 Q 355.5 -100 711 400 Q 1066.5 900 1422 972" opacity="0.26"></path><path d="M 0 945 Q 355.5 -100 711 400 Q 1066.5 900 1422 945" opacity="0.68"></path><path d="M 0 918 Q 355.5 -100 711 400 Q 1066.5 900 1422 918" opacity="0.72"></path><path d="M 0 891 Q 355.5 -100 711 400 Q 1066.5 900 1422 891" opacity="0.35"></path><path d="M 0 864 Q 355.5 -100 711 400 Q 1066.5 900 1422 864" opacity="0.56"></path><path d="M 0 837 Q 355.5 -100 711 400 Q 1066.5 900 1422 837" opacity="0.76"></path><path d="M 0 810 Q 355.5 -100 711 400 Q 1066.5 900 1422 810" opacity="0.71"></path><path d="M 0 783 Q 355.5 -100 711 400 Q 1066.5 900 1422 783" opacity="0.76"></path><path d="M 0 756 Q 355.5 -100 711 400 Q 1066.5 900 1422 756" opacity="0.76"></path><path d="M 0 729 Q 355.5 -100 711 400 Q 1066.5 900 1422 729" opacity="0.74"></path><path d="M 0 702 Q 355.5 -100 711 400 Q 1066.5 900 1422 702" opacity="0.47"></path><path d="M 0 675 Q 355.5 -100 711 400 Q 1066.5 900 1422 675" opacity="0.61"></path><path d="M 0 648 Q 355.5 -100 711 400 Q 1066.5 900 1422 648" opacity="0.11"></path><path d="M 0 621 Q 355.5 -100 711 400 Q 1066.5 900 1422 621" opacity="0.33"></path><path d="M 0 594 Q 355.5 -100 711 400 Q 1066.5 900 1422 594" opacity="0.17"></path><path d="M 0 567 Q 355.5 -100 711 400 Q 1066.5 900 1422 567" opacity="0.30"></path><path d="M 0 540 Q 355.5 -100 711 400 Q 1066.5 900 1422 540" opacity="0.67"></path><path d="M 0 513 Q 355.5 -100 711 400 Q 1066.5 900 1422 513" opacity="0.20"></path><path d="M 0 486 Q 355.5 -100 711 400 Q 1066.5 900 1422 486" opacity="0.61"></path><path d="M 0 459 Q 355.5 -100 711 400 Q 1066.5 900 1422 459" opacity="0.57"></path><path d="M 0 432 Q 355.5 -100 711 400 Q 1066.5 900 1422 432" opacity="0.43"></path><path d="M 0 405 Q 355.5 -100 711 400 Q 1066.5 900 1422 405" opacity="0.75"></path><path d="M 0 378 Q 355.5 -100 711 400 Q 1066.5 900 1422 378" opacity="0.22"></path><path d="M 0 351 Q 355.5 -100 711 400 Q 1066.5 900 1422 351" opacity="0.98"></path><path d="M 0 324 Q 355.5 -100 711 400 Q 1066.5 900 1422 324" opacity="0.57"></path><path d="M 0 297 Q 355.5 -100 711 400 Q 1066.5 900 1422 297" opacity="0.98"></path><path d="M 0 270 Q 355.5 -100 711 400 Q 1066.5 900 1422 270" opacity="0.24"></path><path d="M 0 243 Q 355.5 -100 711 400 Q 1066.5 900 1422 243" opacity="0.41"></path><path d="M 0 216 Q 355.5 -100 711 400 Q 1066.5 900 1422 216" opacity="0.96"></path><path d="M 0 189 Q 355.5 -100 711 400 Q 1066.5 900 1422 189" opacity="0.34"></path><path d="M 0 162 Q 355.5 -100 711 400 Q 1066.5 900 1422 162" opacity="0.59"></path><path d="M 0 135 Q 355.5 -100 711 400 Q 1066.5 900 1422 135" opacity="0.20"></path><path d="M 0 108 Q 355.5 -100 711 400 Q 1066.5 900 1422 108" opacity="0.68"></path><path d="M 0 81 Q 355.5 -100 711 400 Q 1066.5 900 1422 81" opacity="0.87"></path><path d="M 0 54 Q 355.5 -100 711 400 Q 1066.5 900 1422 54" opacity="0.52"></path></g></svg>